<?xml version="1.0" encoding="UTF-8" standalone="no"?>
<!-- Generator: Adobe Illustrator 16.0.0, SVG Export Plug-In . SVG Version: 6.00 Build 0)  -->

<svg
   version="1.1"
   id="Layer_1"
   x="0px"
   y="0px"
   width="166.26537"
   height="192"
   viewBox="0.083 42.123 166.26537 192.00001"
   enable-background="new 0.083 42.123 611.834 706.506"
   xml:space="preserve"
   sodipodi:docname="fable.svg"
   inkscape:version="1.4.2 (1:1.4.2+202505120737+ebf0e940d0)"
   xmlns:inkscape="http://www.inkscape.org/namespaces/inkscape"
   xmlns:sodipodi="http://sodipodi.sourceforge.net/DTD/sodipodi-0.dtd"
   xmlns:xlink="http://www.w3.org/1999/xlink"
   xmlns="http://www.w3.org/2000/svg"
   xmlns:svg="http://www.w3.org/2000/svg"><defs
   id="defs18"><color-profile
     name="Artifex-CMYK-SWOP-Profile"
     xlink:href="file:///usr/share/color/icc/ghostscript/default_cmyk.icc"
     id="color-profile1" /></defs><sodipodi:namedview
   id="namedview18"
   pagecolor="#ffffff"
   bordercolor="#000000"
   borderopacity="0.25"
   inkscape:showpageshadow="2"
   inkscape:pageopacity="0.0"
   inkscape:pagecheckerboard="0"
   inkscape:deskcolor="#d1d1d1"
   inkscape:zoom="1.1931958"
   inkscape:cx="305.90117"
   inkscape:cy="353.25299"
   inkscape:window-width="1870"
   inkscape:window-height="1052"
   inkscape:window-x="0"
   inkscape:window-y="0"
   inkscape:window-maximized="1"
   inkscape:current-layer="Layer_1" />
<polygon
   id="fill"
   fill="#428bca"
   points="0.083,218.756 305.999,42.151 611.917,218.756 611.917,572.053 305.999,748.657 0.083,572.05 "
   transform="matrix(0.27174913,0,0,0.27174913,0.06044482,30.676111)" />
<linearGradient
   id="gradient_1_"
   gradientUnits="userSpaceOnUse"
   x1="305.6709"
   y1="404.72559"
   x2="305.6709"
   y2="134.4175"
   gradientTransform="matrix(0.27174913,0,0,0.27174913,0.06044482,8.9361806)">
	<stop
   offset="0"
   style="stop-color:#FFFFFF;stop-opacity:0"
   id="stop1" />
	<stop
   offset="1"
   style="stop-color:#FFFFFF"
   id="stop2" />
</linearGradient>
<path
   id="gradient"
   opacity="0.2"
   fill="url(#gradient_1_)"
   d="m 83.104533,45.463884 -66.951105,38.75985 c 10.049011,20.254826 36.221985,34.696116 66.926376,34.696116 30.798956,0 57.038786,-14.53043 67.019046,-34.883351 z"
   style="fill:url(#gradient_1_);stroke-width:0.271749" />
<g
   id="g6"
   transform="matrix(0.27174913,0,0,0.27174913,0.06044482,30.676111)">
	<path
   fill="#ffffff"
   d="m 211.88,609.173 c 1.504,0 2.256,-1.279 2.256,-3.836 0,-2.557 -1.079,-6.629 -3.233,-12.219 -2.156,-5.59 -5.464,-12.721 -9.926,-21.393 -4.462,-8.673 -9.362,-17.721 -14.701,-27.146 -5.339,-9.424 -10.114,-17.996 -14.325,-25.717 15.189,-9.574 27.02,-20.201 35.492,-31.883 11.279,4.061 23.636,8.147 37.071,12.258 -5.214,6.718 -10.478,13.385 -15.791,20.002 -1.605,-2.456 -5.577,-4.988 -11.918,-7.596 -6.342,-2.605 -10.666,-3.91 -12.971,-3.91 -2.306,0 -3.76,0.352 -4.361,1.053 -0.602,0.703 -0.902,1.605 -0.902,2.707 0,3.41 2.03,10.002 6.091,19.777 2.557,0.15 6.667,0.225 12.332,0.225 5.665,0 13.81,-0.65 24.438,-1.955 -1.103,6.016 -2.105,11.982 -3.008,17.896 l -27.146,-1.428 c 7.319,15.54 15.114,29.275 23.386,41.207 -8.572,11.781 -18.9,26.143 -30.98,43.086 -12.232,-6.016 -23.085,-16.092 -32.56,-30.229 2.305,-5.764 5.339,-13.408 9.099,-22.934 5.113,7.82 11.103,15.113 17.972,21.881 6.868,6.769 11.43,10.154 13.685,10.154 z"
   id="path2" />
	<path
   fill="#ffffff"
   d="m 248.332,554.968 24.375,-19.813 27.625,12.938 c -3.25,2.834 -4.896,6.021 -4.938,9.563 l -0.25,20.688 c 0,1.416 0.739,3.021 2.219,4.813 1.479,1.791 2.885,3.229 4.219,4.313 l -12.625,13 -9.688,-9.938 c -2.334,1.875 -4.688,3.594 -7.063,5.156 -2.375,1.562 -4.5,3.197 -6.375,4.906 -6.25,-2.334 -12.084,-5.938 -17.5,-10.813 1.541,-1.959 2.438,-4.813 2.688,-8.563 l -0.188,-18.875 c 0,-0.166 0,-0.334 0,-0.5 0.001,-2.459 -0.833,-4.75 -2.499,-6.875 z m 21.437,-4.813 c -2.417,3.625 -3.625,6.854 -3.625,9.688 v 15.313 c 0,3.125 0.563,5.354 1.688,6.688 0.958,1.375 1.844,2.604 2.656,3.688 0.812,1.084 2.114,1.875 3.906,2.375 l 5.125,-3.688 v -28.75 z"
   id="path3" />
	<path
   fill="#ffffff"
   d="m 305.582,521.53 0.688,-2.938 c 8.291,-2.916 17.228,-6.959 26.812,-12.125 l 3.938,2.438 c -5.916,3.541 -8.896,10.229 -8.938,20.063 l -0.063,12.875 10.375,-8.25 c 3.167,1.334 6.083,3.916 8.751,7.75 5.457,7.834 8.645,16.146 9.563,24.938 0.125,1.041 0.188,2.396 0.188,4.063 0,1.667 -0.459,3.084 -1.375,4.25 l -20.688,26.938 -26.813,-13.313 c 1.041,-2.25 2.021,-4.656 2.938,-7.219 0.917,-2.563 1.375,-5.344 1.375,-8.344 l -0.5,-43.375 c -0.002,-3.085 -2.086,-5.667 -6.251,-7.751 z m 22.437,27.75 -0.188,27.063 c 0.375,2.084 1.803,3.697 4.281,4.844 2.478,1.147 4.146,1.719 5,1.719 0.854,0 1.447,-0.041 1.781,-0.125 3.583,-0.916 5.376,-3.25 5.376,-7 0,-0.916 -0.105,-1.916 -0.313,-3 -1.418,-7 -3.469,-12.291 -6.157,-15.875 -2.687,-3.585 -5.946,-6.126 -9.78,-7.626 z"
   id="path4" />
	<path
   fill="#ffffff"
   d="m 392.02,586.218 c -7.167,7.916 -11.792,13 -13.875,15.25 -3.084,-2.334 -6.156,-4.678 -9.219,-7.031 -3.063,-2.353 -6.115,-4.697 -9.156,-7.031 2.833,-2.459 4.688,-4.729 5.563,-6.813 0.875,-2.084 1.333,-4.063 1.375,-5.938 l 0.313,-37.813 c 0,-2.709 -0.115,-5.938 -0.344,-9.688 -0.229,-3.75 -1.156,-6.916 -2.781,-9.5 l 20.625,-11.188 c -1.125,5 -1.781,10.188 -1.969,15.563 -0.188,5.375 -0.281,10.834 -0.281,16.375 l -0.25,36.688 c 0,3.125 0.291,4.896 0.875,5.313 0.582,0.416 3.624,2.354 9.124,5.813 z"
   id="path5" />
	<path
   fill="#ffffff"
   d="M 425.707,600.468 395.77,588.53 c 1.125,-6.25 1.688,-12.76 1.688,-19.531 0,-6.771 -0.646,-13.844 -1.938,-21.219 l 21.563,-12.688 v -0.188 l 0.125,0.063 h 0.063 l 24.313,17.438 -25.314,26.625 c 1.708,2.041 3.604,3.166 5.688,3.375 2.083,0.209 3.802,0.313 5.156,0.313 1.354,0 2.958,-0.072 4.813,-0.219 1.854,-0.146 4.135,-0.26 6.844,-0.344 -2.209,3.084 -4.396,6.146 -6.563,9.188 -2.168,3.041 -4.335,6.084 -6.501,9.125 z M 415.332,551.78 c -2.417,0 -3.625,3.291 -3.625,9.875 0,3.75 0.625,7.5 1.875,11.25 0,0.375 0.063,0.688 0.188,0.938 l 10.063,-10.625 c 0.708,-0.75 1.063,-1.5 1.063,-2.25 0,-0.75 -0.365,-1.709 -1.094,-2.875 -0.729,-1.166 -1.469,-2.125 -2.219,-2.875 -2.626,-2.291 -4.71,-3.438 -6.251,-3.438 z"
   id="path6" />
</g>
<g
   id="g18"
   transform="matrix(0.27174913,0,0,0.27174913,0.06044482,30.676111)">
	<path
   fill-rule="evenodd"
   clip-rule="evenodd"
   fill="#ffffff"
   d="m 536.283,431.302 c -0.55,0.055 -0.915,0.112 -1.28,0.122 -21.341,0.594 -42.671,0.174 -63.991,-0.785 -17.391,-0.78 -34.771,-1.794 -52.167,-2.393 -19.039,-0.658 -38.089,-1.143 -57.136,-1.34 -9.808,-0.101 -19.625,0.573 -29.435,0.954 -0.931,0.036 -1.291,-0.259 -1.631,-1.053 -1.995,-4.665 -4.652,-8.931 -7.998,-12.754 -2.858,-3.263 -6.049,-6.096 -10.453,-7.677 0.479,-0.241 0.76,-0.425 1.064,-0.531 24.967,-8.734 50.632,-13.288 77.125,-12.821 14.833,0.259 29.528,1.979 44.18,4.178 15.941,2.39 31.868,4.909 47.847,7.052 10.839,1.454 21.776,1.916 32.724,1.724 0.313,-0.008 0.627,-0.054 1.156,-0.101 -14.515,-57.405 -29.008,-114.731 -43.501,-172.058 0.096,-0.031 0.192,-0.062 0.288,-0.093 0.868,2.039 1.63,4.127 2.625,6.103 1.716,3.4 3.432,6.816 5.42,10.057 1.547,2.522 3.836,4.341 6.691,5.418 0.55,0.207 1.011,1.106 1.19,1.774 2.765,10.292 5.391,20.622 8.21,30.898 10.367,37.781 20.814,75.541 31.185,113.324 2.623,9.559 5.072,19.166 7.602,28.753 0.091,0.349 0.161,0.705 0.285,1.249 z"
   id="path7" />
	<path
   fill-rule="evenodd"
   clip-rule="evenodd"
   fill="#ffffff"
   d="m 299.97,406.317 c -8.6,3.974 -13.341,11.184 -17.513,18.819 -1.149,2.104 -2.255,2.775 -4.698,2.633 -26.897,-1.578 -53.79,-0.884 -80.68,0.392 -31.009,1.47 -61.99,3.61 -93.047,3.869 -8.755,0.075 -17.512,-0.15 -26.269,-0.241 -0.367,-0.005 -0.733,-0.033 -1.281,-0.06 0.143,-0.638 0.245,-1.189 0.39,-1.731 11.439,-42.762 22.896,-85.518 34.317,-128.283 3.952,-14.803 7.823,-29.625 11.689,-44.451 0.321,-1.235 0.838,-1.924 2.113,-2.376 2.471,-0.875 4.453,-2.627 5.752,-4.837 2.194,-3.736 4.121,-7.632 6.091,-11.495 0.764,-1.498 1.337,-3.092 2.313,-4.539 -14.478,57.26 -28.954,114.521 -43.459,171.888 4.523,0 8.868,0.109 13.205,-0.019 18.115,-0.539 36.052,-2.907 53.969,-5.439 21.753,-3.071 43.508,-6.08 65.551,-6.07 23.914,0.011 47.212,3.748 69.893,11.334 0.447,0.15 0.886,0.324 1.664,0.606 z"
   id="path8" />
	<path
   fill-rule="evenodd"
   clip-rule="evenodd"
   fill="#ffffff"
   d="m 58.451,443.743 c 2.75,-9.149 5.414,-18.029 8.087,-26.905 16.76,-55.631 33.525,-111.258 50.255,-166.897 0.379,-1.26 0.861,-1.803 2.263,-1.748 3.068,0.117 6.146,0.036 9.332,0.385 -1.782,0.775 -3.533,1.635 -5.356,2.297 -1.321,0.481 -1.986,1.238 -2.371,2.625 -16.695,60.285 -33.435,120.559 -50.166,180.836 -0.138,0.497 -0.246,1.003 -0.405,1.661 0.724,0 1.297,0.008 1.869,-0.003 36.509,-0.677 73.019,-1.268 109.524,-2.058 31.146,-0.674 62.287,-1.57 93.429,-2.402 1.347,-0.037 2.385,0.271 3.475,1.106 5.523,4.22 10.367,3.778 14.979,-1.418 1.539,-1.733 2.72,-3.781 4.127,-5.637 1.757,-2.32 3.385,-4.782 5.422,-6.829 2.735,-2.745 5.536,-2.654 8.203,0.165 1.771,1.872 3.181,4.09 4.704,6.187 1.586,2.186 2.963,4.544 4.704,6.597 3.468,4.09 6.907,4.759 11.549,2.032 2.277,-1.335 4.494,-1.719 7.047,-1.664 47.067,0.984 94.134,1.923 141.2,2.846 19.897,0.391 39.797,0.721 59.697,1.075 0.577,0.011 1.155,0 1.951,0 -0.161,-0.663 -0.274,-1.202 -0.42,-1.731 -16.063,-57.822 -32.13,-115.64 -48.196,-173.46 -0.708,-2.553 -1.452,-5.099 -2.087,-7.672 -0.27,-1.09 -0.818,-1.695 -1.874,-2.091 -1.972,-0.744 -3.89,-1.639 -5.834,-2.81 1.009,0 2.017,0 3.027,0 2.175,0 4.354,0.071 6.526,-0.027 1.226,-0.056 1.721,0.364 2.076,1.549 4.39,14.733 8.846,29.445 13.28,44.164 14.832,49.234 29.665,98.47 44.495,147.706 0.194,0.643 0.36,1.296 0.586,2.112 -0.674,0 -1.141,0.008 -1.606,0 -50.786,-0.692 -101.572,-1.382 -152.361,-2.076 -23.03,-0.313 -46.061,-0.625 -69.091,-0.969 -1.198,-0.019 -2.052,0.267 -2.904,1.168 -3.478,3.688 -7.323,6.923 -11.921,9.168 -6.436,3.144 -12.866,3.139 -19.299,-0.003 -4.499,-2.195 -8.287,-5.342 -11.694,-8.944 -1.005,-1.065 -2.011,-1.418 -3.452,-1.396 -44.736,0.658 -89.473,1.274 -134.21,1.889 -29.028,0.399 -58.058,0.783 -87.086,1.172 -0.419,0.005 -0.837,0 -1.474,0 z"
   id="path9" />
	<path
   fill-rule="evenodd"
   clip-rule="evenodd"
   fill="#ffffff"
   d="m 450.861,225.527 c -4.696,1.656 -9.204,3.346 -13.775,4.833 -7.382,2.4 -14.9,4.138 -22.684,4.703 -7.21,0.523 -14.159,-0.864 -21.084,-2.507 -7.944,-1.884 -15.833,-4 -23.795,-5.795 -11.191,-2.527 -22.405,-1.891 -33.447,0.809 -8.742,2.136 -17.347,4.84 -26.013,7.295 -0.499,0.141 -0.991,0.302 -1.958,0.6 0.484,-0.416 0.593,-0.544 0.729,-0.619 11.643,-6.396 23.811,-11.35 36.975,-13.641 12.3,-2.141 24.527,-1.583 36.694,0.911 8.257,1.692 16.465,3.617 24.726,5.304 16.004,3.271 29.8,-0.987 41.424,-12.411 0.871,-0.855 1.744,-1.709 2.598,-2.581 0.813,-0.831 1.602,-1.687 2.487,-2.621 19.39,64.577 38.748,129.05 58.184,193.78 -3.183,-0.755 -6.194,-1.517 -9.229,-2.178 -19.058,-4.162 -38.068,-8.576 -57.2,-12.367 -17.116,-3.391 -34.471,-4.777 -51.945,-3.958 -17.629,0.824 -34.861,4.059 -51.755,9.043 -9.194,2.713 -18.259,5.865 -27.384,8.822 -0.483,0.155 -0.969,0.311 -1.554,0.179 4.744,-1.949 9.468,-3.947 14.235,-5.837 15.661,-6.202 31.663,-11.251 48.313,-14.063 14.252,-2.408 28.587,-2.95 42.992,-1.897 21.437,1.565 42.412,5.979 63.421,10.193 6.86,1.376 13.716,2.786 20.576,4.176 0.296,0.06 0.604,0.06 1.053,0.101 -17.559,-56.849 -35.069,-113.554 -52.584,-170.274 z"
   id="path10" />
	<path
   fill-rule="evenodd"
   clip-rule="evenodd"
   fill="#ffffff"
   d="m 302.256,235.487 c -6.887,-2.459 -13.713,-5.075 -20.653,-7.345 -20.33,-6.648 -41.199,-9.468 -62.575,-8.387 -15.084,0.762 -29.953,3.141 -44.729,6.132 -8.314,1.682 -16.59,3.551 -24.894,5.284 -1.174,0.245 -1.748,0.704 -2.047,1.945 -11.917,49.372 -23.877,98.732 -35.829,148.095 -0.933,3.854 -1.847,7.713 -2.824,11.803 3.341,-0.389 6.485,-0.754 9.631,-1.119 18.177,-2.112 36.338,-4.373 54.534,-6.296 15.795,-1.669 31.65,-2.255 47.535,-1.542 25.097,1.127 49.296,6.171 72.283,16.52 0.527,0.236 1.044,0.498 1.488,0.949 -0.468,-0.171 -0.94,-0.329 -1.403,-0.514 -13.828,-5.513 -28.204,-8.814 -42.947,-10.645 -21.647,-2.688 -43.311,-2.229 -64.987,-0.378 -22.006,1.882 -43.807,5.256 -65.573,8.895 -5.857,0.98 -11.715,1.962 -17.573,2.937 -0.458,0.078 -0.924,0.106 -1.627,0.187 0.645,-2.591 1.229,-4.988 1.84,-7.381 13.993,-54.863 27.993,-109.724 41.965,-164.592 0.279,-1.096 0.71,-1.667 1.877,-1.95 15.972,-3.881 31.938,-7.774 48.177,-10.428 16.496,-2.695 33.06,-4.13 49.776,-2.704 21.186,1.808 40.726,8.361 58.362,20.353 0.081,0.054 0.145,0.136 0.193,0.181 z"
   id="path11" />
	<path
   fill-rule="evenodd"
   clip-rule="evenodd"
   fill="#ffffff"
   d="m 305.496,239.458 c 3.747,54.591 5.098,109.169 0.398,163.763 -2.786,-27.235 -3.833,-54.542 -3.739,-81.901 0.094,-27.331 1.296,-54.618 3.341,-81.862 z"
   id="path12" />
	<path
   fill-rule="evenodd"
   clip-rule="evenodd"
   fill="#ffffff"
   d="m 306.75,406.286 c 1.796,0.796 3.931,1.332 5.555,2.551 2.697,2.023 5.325,4.264 7.52,6.811 3.454,4.01 6.554,8.328 9.733,12.568 0.814,1.08 1.75,2.412 0.808,3.778 -1.001,1.454 -2.619,1.12 -4.087,0.77 -1.948,-0.461 -3.399,-1.526 -4.395,-3.349 -2.605,-4.758 -5.594,-9.26 -9.4,-13.169 -0.739,-0.759 -1.482,-1.523 -2.294,-2.202 -2.307,-1.929 -4.093,-2.09 -6.417,-0.143 -2.103,1.757 -4.161,3.67 -5.812,5.839 -2.368,3.112 -4.408,6.482 -6.474,9.813 -1.524,2.462 -4.252,3.908 -7.094,3.502 -1.974,-0.285 -2.719,-1.556 -1.982,-3.419 0.155,-0.392 0.347,-0.78 0.583,-1.128 3.96,-5.852 8.099,-11.574 13.344,-16.361 1.748,-1.597 3.713,-3.001 5.743,-4.223 1.273,-0.767 2.85,-1.024 4.669,-1.638 z"
   id="path13" />
	<g
   id="g16">
		<path
   opacity="0.5"
   fill="#ffffff"
   d="m 307.327,338.953 c 7.072,-20.088 14.664,-39.98 22.112,-59.932 8.771,14.406 16.785,29.292 23.806,44.63 8.06,1.911 9.013,4.486 17.128,4.292 6.485,-20.961 12.16,-42.001 17.065,-63.388 3.923,-9.479 7.173,-19.444 14.099,-27.265 10.945,11.474 19.674,24.516 28.557,37.599 9.832,2.86 14.462,4.037 22.629,6.515 1.023,-19.288 0.805,-37.813 -1.464,-57.007 4.094,13.696 8.233,27.377 12.4,41.051 8.707,28.43 17.464,56.844 26.025,85.318 -1.205,11.837 -3.529,24.771 -10.538,34.703 -8.807,-4.684 -18.086,-8.438 -27.596,-11.428 -13.179,-11.863 -22.951,-24.26 -32.445,-39.157 -6.578,6.927 -14.381,12.593 -22.577,17.447 -6.49,9.85 -14.833,18.508 -24.602,25.132 -8.414,-0.246 -8.854,-1.308 -17.7,-2.629 -10.046,-12.048 -17.064,-26.343 -24.222,-40.19 -9.924,1.038 -15.153,2.024 -22.677,4.309"
   id="path14" />
		<path
   opacity="0.33"
   fill="#ffffff"
   d="m 307.327,338.953 c 7.046,-16.877 14.701,-33.452 22.369,-50.053 8.53,14.789 16.482,29.924 23.729,45.384 8.129,2.433 8.896,5.244 17.206,5.65 7.225,-19.701 13.16,-39.642 18.136,-60.021 4.645,-10.693 8.683,-21.741 14.227,-32.018 10.969,14.91 21.006,30.478 31.221,45.906 10.234,3.237 15.015,4.589 23.561,7.336 1.338,-18.776 1.601,-36.98 -0.074,-55.74 2.376,8.017 3.57,12.025 5.959,20.049 6.48,21.167 12.987,42.326 19.441,63.501 -1.101,14.399 -2.463,28.558 -7.51,42.218 -8.652,-3.594 -17.542,-6.598 -26.532,-9.223 -12.84,-14.682 -23.569,-29.441 -33.654,-46.122 -5.646,8.709 -12.648,16.478 -20.418,23.339 -6.674,12.335 -13.72,23.643 -23.313,33.947 -8.561,-0.917 -8.973,-2.827 -17.616,-5.008 -9.128,-13.569 -16.519,-28.206 -23.996,-42.718 -9.848,4.738 -15.119,7.604 -22.736,13.573"
   id="path15" />
		<path
   fill="none"
   stroke="#ffffff"
   stroke-width="3"
   stroke-linejoin="round"
   stroke-miterlimit="10"
   d="m 307.327,338.953 c 6.768,-11.067 14.628,-21.419 22.668,-31.582 7.973,15.064 15.805,30.202 23.748,45.281 8.336,2.82 8.845,5.585 17.407,6.721 8.408,-15.815 15.003,-32.036 20.648,-49.017 6.383,-10.078 11.779,-20.716 16.576,-31.628 10.917,17.563 21.886,34.818 33.869,51.697 10.825,3.307 15.824,4.738 24.996,7.754 2.346,-16.862 3.876,-33.656 3.168,-50.704"
   id="path16" />
	</g>
	<g
   id="g17">
		<path
   fill="none"
   stroke="#ffffff"
   stroke-width="3"
   stroke-linejoin="round"
   stroke-miterlimit="10"
   d="m 108.776,382.492 c 7.86,0.84 12.861,1.388 23.403,2.843 8.167,-13.749 17.778,-26.491 26.032,-40.173 6.748,-6.656 12.875,-13.917 18.485,-21.551 5.835,14.687 15.24,27.51 20.945,42.316 6.396,-0.93 9.28,-1.388 15.123,-2.168 5.666,-12.514 12.109,-24.639 18.449,-36.818 7.128,-6.964 10.949,-10.124 18.107,-17.181 5.482,14.168 10.588,28.469 16.096,42.627 7.851,3.562 12.023,5.642 20.072,10.085 6.732,-8.956 13.633,-17.21 21.365,-25.319"
   id="path17" />
	</g>
</g>
<path
   id="outline"
   fill="#3674a8"
   d="M 159.71849,86.291201 96.859931,49.997203 83.215679,42.123 69.571427,49.997203 6.7128635,86.291201 0.083,90.115255 v 96.007065 l 6.6295918,3.82378 63.6278852,36.74728 12.875202,7.42201 12.87493,-7.42201 63.627881,-36.74646 6.62987,-3.82351 V 90.115255 Z m 0,96.233709 L 83.215679,226.69338 6.7128635,182.52491 V 94.165676 L 83.215679,49.997203 v 0 l 76.502811,44.168473 z"
   style="stroke-width:0.271749" />
</svg>
